{
	"patcher" : 	{
		"fileversion" : 1,
		"appversion" : 		{
			"major" : 8,
			"minor" : 0,
			"revision" : 1,
			"architecture" : "x64",
			"modernui" : 1
		}
,
		"classnamespace" : "box",
		"rect" : [ 54.0, 137.0, 640.0, 480.0 ],
		"bglocked" : 0,
		"openinpresentation" : 0,
		"default_fontsize" : 12.0,
		"default_fontface" : 0,
		"default_fontname" : "Arial",
		"gridonopen" : 1,
		"gridsize" : [ 15.0, 15.0 ],
		"gridsnaponopen" : 1,
		"objectsnaponopen" : 1,
		"statusbarvisible" : 2,
		"toolbarvisible" : 1,
		"lefttoolbarpinned" : 0,
		"toptoolbarpinned" : 0,
		"righttoolbarpinned" : 0,
		"bottomtoolbarpinned" : 0,
		"toolbars_unpinned_last_save" : 0,
		"tallnewobj" : 0,
		"boxanimatetime" : 200,
		"enablehscroll" : 1,
		"enablevscroll" : 1,
		"devicewidth" : 0.0,
		"description" : "",
		"digest" : "",
		"tags" : "",
		"style" : "",
		"subpatcher_template" : "",
		"boxes" : [ 			{
				"box" : 				{
					"comment" : "SWL",
					"id" : "obj-6",
					"index" : 0,
					"maxclass" : "outlet",
					"numinlets" : 1,
					"numoutlets" : 0,
					"patching_rect" : [ 419.62702352010939, 288.00000330046754, 30.0, 30.0 ]
				}

			}
, 			{
				"box" : 				{
					"comment" : "SWR",
					"id" : "obj-9",
					"index" : 0,
					"maxclass" : "outlet",
					"numinlets" : 1,
					"numoutlets" : 0,
					"patching_rect" : [ 454.62702352010939, 288.00000330046754, 30.0, 30.0 ]
				}

			}
, 			{
				"box" : 				{
					"comment" : "DRL",
					"id" : "obj-3",
					"index" : 0,
					"maxclass" : "outlet",
					"numinlets" : 1,
					"numoutlets" : 0,
					"patching_rect" : [ 341.62702352010939, 288.00000330046754, 30.0, 30.0 ]
				}

			}
, 			{
				"box" : 				{
					"comment" : "RDR",
					"id" : "obj-4",
					"index" : 0,
					"maxclass" : "outlet",
					"numinlets" : 1,
					"numoutlets" : 0,
					"patching_rect" : [ 376.62702352010939, 288.00000330046754, 30.0, 30.0 ]
				}

			}
, 			{
				"box" : 				{
					"id" : "obj-2",
					"maxclass" : "newobj",
					"numinlets" : 1,
					"numoutlets" : 2,
					"outlettype" : [ "", "" ],
					"patching_rect" : [ 434.0, 130.0, 67.0, 22.0 ],
					"save" : [ "#N", "thispatcher", ";", "#Q", "end", ";" ],
					"text" : "thispatcher"
				}

			}
, 			{
				"box" : 				{
					"comment" : "",
					"id" : "obj-1",
					"index" : 0,
					"maxclass" : "inlet",
					"numinlets" : 0,
					"numoutlets" : 1,
					"outlettype" : [ "" ],
					"patching_rect" : [ 386.62702352010939, 39.999999300467536, 30.0, 30.0 ]
				}

			}
, 			{
				"box" : 				{
					"bgcolor" : [ 0.2, 0.282352941176471, 0.301960784313725, 1.0 ],
					"fontname" : "Menlo Bold",
					"fontsize" : 6.50724652627089,
					"format" : 6,
					"htricolor" : [ 0.768627450980392, 0.843137254901961, 0.858823529411765, 1.0 ],
					"id" : "obj-48",
					"maxclass" : "flonum",
					"numinlets" : 1,
					"numoutlets" : 2,
					"outlettype" : [ "", "bang" ],
					"parameter_enable" : 0,
					"patching_rect" : [ 248.80515222643055, 202.835396681225689, 51.0, 16.0 ],
					"presentation" : 1,
					"presentation_rect" : [ 582.0, 1207.37646484375, 90.0, 16.0 ],
					"textcolor" : [ 0.768627450980392, 0.843137254901961, 0.858823529411765, 1.0 ],
					"tricolor" : [ 0.423529411764706, 0.607843137254902, 0.647058823529412, 1.0 ]
				}

			}
, 			{
				"box" : 				{
					"bgcolor" : [ 0.2, 0.282352941176471, 0.301960784313725, 1.0 ],
					"fontface" : 0,
					"fontname" : "Menlo Bold",
					"fontsize" : 6.507247,
					"format" : 6,
					"htricolor" : [ 0.768627450980392, 0.843137254901961, 0.858823529411765, 1.0 ],
					"id" : "obj-49",
					"maxclass" : "flonum",
					"numinlets" : 1,
					"numoutlets" : 2,
					"outlettype" : [ "", "bang" ],
					"parameter_enable" : 0,
					"patching_rect" : [ 188.694847773569222, 202.835396681225689, 55.0, 16.0 ],
					"presentation" : 1,
					"presentation_rect" : [ 477.0, 1207.37646484375, 88.0, 16.0 ],
					"textcolor" : [ 0.768627450980392, 0.843137254901961, 0.858823529411765, 1.0 ],
					"tricolor" : [ 0.423529411764706, 0.607843137254902, 0.647058823529412, 1.0 ]
				}

			}
, 			{
				"box" : 				{
					"bgcolor" : [ 0.501960784313725, 0.717647058823529, 0.764705882352941, 1.0 ],
					"fontname" : "Menlo Bold",
					"fontsize" : 7.630125,
					"id" : "obj-50",
					"maxclass" : "comment",
					"numinlets" : 1,
					"numoutlets" : 0,
					"patching_rect" : [ 188.194847773569222, 182.940402269363403, 56.0, 15.0 ],
					"presentation" : 1,
					"presentation_rect" : [ 477.0, 1237.0765380859375, 77.0, 15.0 ],
					"text" : "dur (smp)",
					"textcolor" : [ 0.996078431606293, 0.996078431606293, 0.996078431606293, 1.0 ],
					"textjustification" : 1
				}

			}
, 			{
				"box" : 				{
					"bgcolor" : [ 0.501960784313725, 0.717647058823529, 0.764705882352941, 1.0 ],
					"fontname" : "Menlo Bold",
					"fontsize" : 7.630124541639003,
					"id" : "obj-51",
					"maxclass" : "comment",
					"numinlets" : 1,
					"numoutlets" : 0,
					"patching_rect" : [ 248.80515222643055, 182.940402269363403, 51.0, 15.0 ],
					"presentation" : 1,
					"presentation_rect" : [ 582.0, 1237.0765380859375, 74.0, 15.0 ],
					"text" : "dur (sec)",
					"textcolor" : [ 0.996078431606293, 0.996078431606293, 0.996078431606293, 1.0 ],
					"textjustification" : 1
				}

			}
, 			{
				"box" : 				{
					"bgcolor" : [ 0.2, 0.282352941176471, 0.301960784313725, 1.0 ],
					"fontname" : "Menlo Bold",
					"fontsize" : 8.033450762473931,
					"format" : 6,
					"htricolor" : [ 0.768627450980392, 0.843137254901961, 0.858823529411765, 1.0 ],
					"id" : "obj-55",
					"maxclass" : "flonum",
					"numinlets" : 1,
					"numoutlets" : 2,
					"outlettype" : [ "", "bang" ],
					"parameter_enable" : 0,
					"patching_rect" : [ 188.194847773569222, 155.0, 111.610304452861328, 18.0 ],
					"presentation" : 1,
					"presentation_rect" : [ 369.0, 1252.0765380859375, 96.0, 18.0 ],
					"textcolor" : [ 0.768627450980392, 0.843137254901961, 0.858823529411765, 1.0 ],
					"tricolor" : [ 0.423529411764706, 0.607843137254902, 0.647058823529412, 1.0 ]
				}

			}
, 			{
				"box" : 				{
					"bgcolor" : [ 0.238168, 0.193585, 0.215291, 0.0 ],
					"bgcolor2" : [ 0.238168, 0.193585, 0.215291, 0.0 ],
					"bgfillcolor_angle" : 269.577713564497685,
					"bgfillcolor_autogradient" : 0.0,
					"bgfillcolor_color" : [ 0.168627450980392, 0.23921568627451, 0.254901960784314, 1.0 ],
					"bgfillcolor_color1" : [ 0.238168, 0.193585, 0.215291, 0.0 ],
					"bgfillcolor_color2" : [ 0.117536, 0.116592, 0.144338, 1.0 ],
					"bgfillcolor_proportion" : 0.39,
					"bgfillcolor_pt1" : [ 0.504951, 0.278261 ],
					"bgfillcolor_pt2" : [ 0.5, 0.95 ],
					"bgfillcolor_type" : "color",
					"gradient" : 1,
					"id" : "obj-58",
					"maxclass" : "message",
					"numinlets" : 2,
					"numoutlets" : 1,
					"outlettype" : [ "" ],
					"patching_rect" : [ 188.194847773569222, 118.719888230256288, 111.610304452861328, 22.0 ],
					"presentation" : 1,
					"presentation_rect" : [ 369.0, 1118.4000244140625, 87.0, 22.0 ],
					"style" : "velvet",
					"text" : "replace"
				}

			}
, 			{
				"box" : 				{
					"coldcolor" : [ 0.968627450980392, 0.043137254901961, 0.043137254901961, 1.0 ],
					"focusbordercolor" : [ 0.996078431372549, 0.0, 0.0, 1.0 ],
					"fontname" : "Menlo Bold",
					"id" : "obj-848",
					"lastchannelcount" : 0,
					"maxclass" : "live.gain~",
					"numinlets" : 2,
					"numoutlets" : 5,
					"orientation" : 1,
					"outlettype" : [ "signal", "signal", "", "float", "list" ],
					"parameter_enable" : 1,
					"patching_rect" : [ 53.627025187767799, 197.835396681225689, 100.0, 26.0 ],
					"saved_attribute_attributes" : 					{
						"valueof" : 						{
							"parameter_mmin" : -70.0,
							"parameter_longname" : "live.gain~[21]",
							"parameter_mmax" : 6.0,
							"parameter_initial" : [ 0 ],
							"parameter_shortname" : "level",
							"parameter_type" : 0,
							"parameter_unitstyle" : 4
						}

					}
,
					"showname" : 0,
					"shownumber" : 0,
					"slidercolor" : [ 0.8, 0.886274509803922, 0.905882352941176, 1.0 ],
					"varname" : "live.gain~[22]"
				}

			}
, 			{
				"box" : 				{
					"bgcolor" : [ 0.2, 0.282352941176471, 0.301960784313725, 1.0 ],
					"blinkcolor" : [ 1.0, 0.0, 0.0, 1.0 ],
					"id" : "obj-830",
					"maxclass" : "button",
					"numinlets" : 1,
					"numoutlets" : 1,
					"outlettype" : [ "bang" ],
					"outlinecolor" : [ 1.0, 1.0, 1.0, 1.0 ],
					"parameter_enable" : 0,
					"patching_rect" : [ 131.2268936970396, 166.095466204300578, 22.400131490728199, 22.400131490728199 ]
				}

			}
, 			{
				"box" : 				{
					"bgcolor" : [ 0.2, 0.282352941176471, 0.301960784313725, 1.0 ],
					"blinkcolor" : [ 1.0, 0.0, 0.0, 1.0 ],
					"id" : "obj-829",
					"maxclass" : "button",
					"numinlets" : 1,
					"numoutlets" : 1,
					"outlettype" : [ "bang" ],
					"outlinecolor" : [ 1.0, 1.0, 1.0, 1.0 ],
					"parameter_enable" : 0,
					"patching_rect" : [ 79.493648024191771, 166.095466204300578, 22.400131490728199, 22.400131490728199 ]
				}

			}
, 			{
				"box" : 				{
					"bgcolor" : [ 0.423529411764706, 0.607843137254902, 0.647058823529412, 1.0 ],
					"checkedcolor" : [ 0.996078431372549, 0.0, 0.0, 1.0 ],
					"id" : "obj-823",
					"maxclass" : "toggle",
					"numinlets" : 1,
					"numoutlets" : 1,
					"outlettype" : [ "int" ],
					"parameter_enable" : 0,
					"patching_rect" : [ 53.627025187767799, 166.095466204300578, 22.400131490728199, 22.400131490728199 ],
					"uncheckedcolor" : [ 0.996078431372549, 0.996078431372549, 0.996078431372549, 1.0 ]
				}

			}
, 			{
				"box" : 				{
					"bgcolor" : [ 0.423529411764706, 0.607843137254902, 0.647058823529412, 1.0 ],
					"checkedcolor" : [ 0.996078431372549, 0.0, 0.0, 1.0 ],
					"id" : "obj-824",
					"maxclass" : "toggle",
					"numinlets" : 1,
					"numoutlets" : 1,
					"outlettype" : [ "int" ],
					"parameter_enable" : 0,
					"patching_rect" : [ 105.360270860615685, 166.095466204300578, 22.400131490728199, 22.400131490728199 ],
					"uncheckedcolor" : [ 0.996078431372549, 0.996078431372549, 0.996078431372549, 1.0 ]
				}

			}
, 			{
				"box" : 				{
					"bgcolor" : [ 0.196078431372549, 0.27843137254902, 0.294117647058824, 1.0 ],
					"checkedcolor" : [ 0.996078431372549, 0.0, 0.0, 1.0 ],
					"id" : "obj-206",
					"maxclass" : "toggle",
					"numinlets" : 1,
					"numoutlets" : 1,
					"outlettype" : [ "int" ],
					"parameter_enable" : 0,
					"patching_rect" : [ 105.360270860615685, 110.835396681225689, 49.0, 49.0 ],
					"uncheckedcolor" : [ 0.996078431372549, 0.996078431372549, 0.996078431372549, 1.0 ]
				}

			}
, 			{
				"box" : 				{
					"coldcolor" : [ 0.968627450980392, 0.043137254901961, 0.043137254901961, 1.0 ],
					"focusbordercolor" : [ 0.996078431372549, 0.0, 0.0, 1.0 ],
					"fontname" : "Menlo Bold",
					"id" : "obj-154",
					"lastchannelcount" : 0,
					"maxclass" : "live.gain~",
					"numinlets" : 2,
					"numoutlets" : 5,
					"outlettype" : [ "signal", "signal", "", "float", "list" ],
					"parameter_enable" : 1,
					"patching_rect" : [ 152.0, 110.835396681225689, 26.0, 78.0 ],
					"saved_attribute_attributes" : 					{
						"valueof" : 						{
							"parameter_mmin" : -70.0,
							"parameter_longname" : "live.gain~[24]",
							"parameter_mmax" : 6.0,
							"parameter_initial" : [ 0 ],
							"parameter_shortname" : "level",
							"parameter_type" : 0,
							"parameter_unitstyle" : 4
						}

					}
,
					"showname" : 0,
					"shownumber" : 0,
					"slidercolor" : [ 0.8, 0.886274509803922, 0.905882352941176, 1.0 ],
					"varname" : "live.gain~[2]"
				}

			}
, 			{
				"box" : 				{
					"bgcolor" : [ 0.274509803921569, 0.392156862745098, 0.415686274509804, 1.0 ],
					"fontname" : "Menlo Bold",
					"fontsize" : 11.157470254165,
					"format" : 6,
					"id" : "obj-155",
					"maxclass" : "flonum",
					"numinlets" : 1,
					"numoutlets" : 2,
					"outlettype" : [ "", "bang" ],
					"parameter_enable" : 0,
					"patching_rect" : [ 53.627025187767799, 138.835396681225689, 48.266754327152171, 21.0 ],
					"textcolor" : [ 0.996078431372549, 0.996078431372549, 0.996078431372549, 1.0 ],
					"tricolor" : [ 1.0, 0.0, 0.0, 1.0 ]
				}

			}
, 			{
				"box" : 				{
					"bgcolor" : [ 0.274509803921569, 0.392156862745098, 0.415686274509804, 1.0 ],
					"fontname" : "Menlo Bold",
					"fontsize" : 11.157470254164981,
					"format" : 6,
					"id" : "obj-158",
					"maxclass" : "flonum",
					"numinlets" : 1,
					"numoutlets" : 2,
					"outlettype" : [ "", "bang" ],
					"parameter_enable" : 0,
					"patching_rect" : [ 53.627025187767799, 110.835396681225689, 48.266754327152171, 21.0 ],
					"textcolor" : [ 0.996078431372549, 0.996078431372549, 0.996078431372549, 1.0 ],
					"tricolor" : [ 1.0, 0.0, 0.0, 1.0 ]
				}

			}
, 			{
				"box" : 				{
					"angle" : 270.0,
					"bgcolor" : [ 0.596078431372549, 0.725490196078431, 0.752941176470588, 1.0 ],
					"id" : "obj-5",
					"maxclass" : "panel",
					"mode" : 0,
					"numinlets" : 1,
					"numoutlets" : 0,
					"patching_rect" : [ 180.0, 100.0, 128.0, 128.0 ],
					"proportion" : 0.39,
					"rounded" : 16
				}

			}
, 			{
				"box" : 				{
					"angle" : 270.0,
					"bgcolor" : [ 0.596078431372549, 0.725490196078431, 0.752941176470588, 1.0 ],
					"id" : "obj-7",
					"maxclass" : "panel",
					"mode" : 0,
					"numinlets" : 1,
					"numoutlets" : 0,
					"patching_rect" : [ 50.0, 100.0, 128.0, 128.0 ],
					"proportion" : 0.39,
					"rounded" : 16
				}

			}
, 			{
				"box" : 				{
					"comment" : "",
					"id" : "obj-8",
					"index" : 0,
					"maxclass" : "inlet",
					"numinlets" : 0,
					"numoutlets" : 1,
					"outlettype" : [ "" ],
					"patching_rect" : [ 53.62702352010939, 39.999999300467536, 30.0, 30.0 ]
				}

			}
, 			{
				"box" : 				{
					"comment" : "",
					"id" : "obj-10",
					"index" : 0,
					"maxclass" : "inlet",
					"numinlets" : 0,
					"numoutlets" : 1,
					"outlettype" : [ "" ],
					"patching_rect" : [ 88.62702352010939, 39.999999300467536, 30.0, 30.0 ]
				}

			}
, 			{
				"box" : 				{
					"comment" : "",
					"id" : "obj-11",
					"index" : 0,
					"maxclass" : "inlet",
					"numinlets" : 0,
					"numoutlets" : 1,
					"outlettype" : [ "" ],
					"patching_rect" : [ 123.62702352010939, 39.999999300467536, 30.0, 30.0 ]
				}

			}
, 			{
				"box" : 				{
					"comment" : "",
					"id" : "obj-12",
					"index" : 0,
					"maxclass" : "inlet",
					"numinlets" : 0,
					"numoutlets" : 1,
					"outlettype" : [ "" ],
					"patching_rect" : [ 158.62702352010939, 39.999999300467536, 30.0, 30.0 ]
				}

			}
, 			{
				"box" : 				{
					"comment" : "",
					"id" : "obj-13",
					"index" : 0,
					"maxclass" : "inlet",
					"numinlets" : 0,
					"numoutlets" : 1,
					"outlettype" : [ "" ],
					"patching_rect" : [ 193.62702352010939, 39.999999300467536, 30.0, 30.0 ]
				}

			}
, 			{
				"box" : 				{
					"comment" : "",
					"id" : "obj-14",
					"index" : 0,
					"maxclass" : "inlet",
					"numinlets" : 0,
					"numoutlets" : 1,
					"outlettype" : [ "" ],
					"patching_rect" : [ 228.62702352010939, 39.999999300467536, 30.0, 30.0 ]
				}

			}
, 			{
				"box" : 				{
					"comment" : "",
					"id" : "obj-15",
					"index" : 0,
					"maxclass" : "inlet",
					"numinlets" : 0,
					"numoutlets" : 1,
					"outlettype" : [ "" ],
					"patching_rect" : [ 263.62702352010939, 39.999999300467536, 30.0, 30.0 ]
				}

			}
, 			{
				"box" : 				{
					"comment" : "",
					"id" : "obj-16",
					"index" : 0,
					"maxclass" : "inlet",
					"numinlets" : 0,
					"numoutlets" : 1,
					"outlettype" : [ "" ],
					"patching_rect" : [ 298.62702352010939, 39.999999300467536, 30.0, 30.0 ]
				}

			}
, 			{
				"box" : 				{
					"comment" : "",
					"id" : "obj-17",
					"index" : 0,
					"maxclass" : "inlet",
					"numinlets" : 0,
					"numoutlets" : 1,
					"outlettype" : [ "" ],
					"patching_rect" : [ 333.62702352010939, 39.999999300467536, 30.0, 30.0 ]
				}

			}
, 			{
				"box" : 				{
					"comment" : "NB1",
					"id" : "obj-18",
					"index" : 0,
					"maxclass" : "outlet",
					"numinlets" : 1,
					"numoutlets" : 0,
					"patching_rect" : [ 53.62702352010939, 288.00000330046754, 30.0, 30.0 ]
				}

			}
, 			{
				"box" : 				{
					"comment" : "NB2",
					"id" : "obj-19",
					"index" : 0,
					"maxclass" : "outlet",
					"numinlets" : 1,
					"numoutlets" : 0,
					"patching_rect" : [ 88.62702352010939, 288.00000330046754, 30.0, 30.0 ]
				}

			}
, 			{
				"box" : 				{
					"comment" : "T1",
					"id" : "obj-20",
					"index" : 0,
					"maxclass" : "outlet",
					"numinlets" : 1,
					"numoutlets" : 0,
					"patching_rect" : [ 123.62702352010939, 288.00000330046754, 30.0, 30.0 ]
				}

			}
, 			{
				"box" : 				{
					"comment" : "B1",
					"id" : "obj-21",
					"index" : 0,
					"maxclass" : "outlet",
					"numinlets" : 1,
					"numoutlets" : 0,
					"patching_rect" : [ 158.62702352010939, 288.00000330046754, 30.0, 30.0 ]
				}

			}
, 			{
				"box" : 				{
					"comment" : "MainT",
					"id" : "obj-22",
					"index" : 0,
					"maxclass" : "outlet",
					"numinlets" : 1,
					"numoutlets" : 0,
					"patching_rect" : [ 193.62702352010939, 288.00000330046754, 30.0, 30.0 ]
				}

			}
, 			{
				"box" : 				{
					"comment" : "T2",
					"id" : "obj-23",
					"index" : 0,
					"maxclass" : "outlet",
					"numinlets" : 1,
					"numoutlets" : 0,
					"patching_rect" : [ 228.62702352010939, 288.00000330046754, 30.0, 30.0 ]
				}

			}
, 			{
				"box" : 				{
					"comment" : "B2",
					"id" : "obj-24",
					"index" : 0,
					"maxclass" : "outlet",
					"numinlets" : 1,
					"numoutlets" : 0,
					"patching_rect" : [ 263.62702352010939, 288.00000330046754, 30.0, 30.0 ]
				}

			}
, 			{
				"box" : 				{
					"comment" : "Replace",
					"id" : "obj-25",
					"index" : 0,
					"maxclass" : "outlet",
					"numinlets" : 1,
					"numoutlets" : 0,
					"patching_rect" : [ 298.62702352010939, 288.00000330046754, 30.0, 30.0 ]
				}

			}
 ],
		"lines" : [ 			{
				"patchline" : 				{
					"destination" : [ "obj-2", 0 ],
					"source" : [ "obj-1", 0 ]
				}

			}
, 			{
				"patchline" : 				{
					"destination" : [ "obj-155", 0 ],
					"source" : [ "obj-10", 0 ]
				}

			}
, 			{
				"patchline" : 				{
					"destination" : [ "obj-848", 0 ],
					"source" : [ "obj-11", 0 ]
				}

			}
, 			{
				"patchline" : 				{
					"destination" : [ "obj-848", 1 ],
					"source" : [ "obj-12", 0 ]
				}

			}
, 			{
				"patchline" : 				{
					"destination" : [ "obj-154", 0 ],
					"source" : [ "obj-13", 0 ]
				}

			}
, 			{
				"patchline" : 				{
					"destination" : [ "obj-154", 1 ],
					"source" : [ "obj-14", 0 ]
				}

			}
, 			{
				"patchline" : 				{
					"destination" : [ "obj-55", 0 ],
					"source" : [ "obj-15", 0 ]
				}

			}
, 			{
				"patchline" : 				{
					"destination" : [ "obj-3", 0 ],
					"source" : [ "obj-154", 0 ]
				}

			}
, 			{
				"patchline" : 				{
					"destination" : [ "obj-4", 0 ],
					"source" : [ "obj-154", 1 ]
				}

			}
, 			{
				"patchline" : 				{
					"destination" : [ "obj-19", 0 ],
					"source" : [ "obj-155", 0 ]
				}

			}
, 			{
				"patchline" : 				{
					"destination" : [ "obj-18", 0 ],
					"source" : [ "obj-158", 0 ]
				}

			}
, 			{
				"patchline" : 				{
					"destination" : [ "obj-49", 0 ],
					"source" : [ "obj-16", 0 ]
				}

			}
, 			{
				"patchline" : 				{
					"destination" : [ "obj-48", 0 ],
					"source" : [ "obj-17", 0 ]
				}

			}
, 			{
				"patchline" : 				{
					"destination" : [ "obj-22", 0 ],
					"source" : [ "obj-206", 0 ]
				}

			}
, 			{
				"patchline" : 				{
					"destination" : [ "obj-25", 0 ],
					"source" : [ "obj-58", 0 ]
				}

			}
, 			{
				"patchline" : 				{
					"destination" : [ "obj-158", 0 ],
					"source" : [ "obj-8", 0 ]
				}

			}
, 			{
				"patchline" : 				{
					"destination" : [ "obj-20", 0 ],
					"source" : [ "obj-823", 0 ]
				}

			}
, 			{
				"patchline" : 				{
					"destination" : [ "obj-23", 0 ],
					"source" : [ "obj-824", 0 ]
				}

			}
, 			{
				"patchline" : 				{
					"destination" : [ "obj-21", 0 ],
					"source" : [ "obj-829", 0 ]
				}

			}
, 			{
				"patchline" : 				{
					"destination" : [ "obj-24", 0 ],
					"source" : [ "obj-830", 0 ]
				}

			}
, 			{
				"patchline" : 				{
					"destination" : [ "obj-6", 0 ],
					"source" : [ "obj-848", 0 ]
				}

			}
, 			{
				"patchline" : 				{
					"destination" : [ "obj-9", 0 ],
					"source" : [ "obj-848", 1 ]
				}

			}
 ],
		"parameters" : 		{
			"obj-848" : [ "live.gain~[21]", "level", 0 ],
			"obj-154" : [ "live.gain~[24]", "level", 0 ],
			"parameterbanks" : 			{

			}

		}
,
		"dependency_cache" : [  ],
		"autosave" : 0
	}

}
